<svg width="52" height="50" viewBox="0 0 52 50" fill="none" xmlns="http://www.w3.org/2000/svg">
<path d="M25.9629 11.462H25.344V16.0234H25.9629V11.462Z" fill="#00ADEE"/>
<path d="M24.1947 11.462H23.5758V16.0234H24.1947V11.462Z" fill="#00ADEE"/>
<path d="M22.456 11.462H21.8371V16.0234H22.456V11.462Z" fill="#00ADEE"/>
<path d="M29.4403 11.462H28.8214V16.0234H29.4403V11.462Z" fill="#00ADEE"/>
<path d="M27.7016 11.462H27.0828V16.0234H27.7016V11.462Z" fill="#00ADEE"/>
<path fill-rule="evenodd" clip-rule="evenodd" d="M25.845 0C11.5816 0 0 11.4912 0 25.6433C0 36.8421 7.24957 46.3743 17.3282 49.883L19.3617 36.4327H25.6387H31.9158L33.9492 50C44.2342 46.6082 51.69 36.9883 51.69 25.6433C51.69 11.4912 40.1379 0 25.845 0ZM31.5916 16.0234V17.5439L29.7645 19.152L31.5916 33.7134H25.7566H19.9216L21.7487 19.152L19.9216 17.5439V16.0234H20.8646V10.8772H19.6269L20.01 9.44444L25.2556 4.67836V3.80117H25.7271H26.1987V4.67836L31.4737 9.47368L31.8568 10.9064H30.6191V16.0526H31.5916V16.0234Z" fill="white"/>
<path fill-rule="evenodd" clip-rule="evenodd" d="M25.845 0C15.0001 0 5.74662 6.60819 1.88608 15.9942H20.8646V10.8772H19.6269L20.01 9.44444L25.2556 4.67836V3.80117H25.7271H26.1987V4.67836L31.4737 9.47368L31.8569 10.9064H30.6191V15.9942H49.804C45.9729 6.63743 36.6899 0 25.845 0Z" fill="#00ADEE"/>
</svg>
