<svg width="51" height="52" viewBox="0 0 51 52" fill="none" xmlns="http://www.w3.org/2000/svg">
<path d="M3.05456 51.0062H47.9393C48.7485 50.9981 49.5224 50.6731 50.0946 50.1008C50.6669 49.5285 50.9919 48.7547 51 47.9454V3.09166C51 2.27703 50.6786 1.4953 50.1054 0.916384C49.5323 0.337466 48.7538 0.0081463 47.9393 0L3.05456 0C2.24105 0.00976285 1.46417 0.339795 0.89237 0.918539C0.320571 1.49728 -5.85712e-05 2.27809 8.02542e-09 3.09166V47.9454C0.00802474 48.7536 0.332227 49.5266 0.903164 50.0987C1.4741 50.6708 2.24637 50.9965 3.05456 51.0062Z" fill="#E10079"/>
<path d="M23.0761 26.7799C24.2788 25.5837 25.9061 24.9122 27.6023 24.9122C29.2986 24.9122 30.9259 25.5837 32.1285 26.7799C32.7164 26.1741 33.42 25.6925 34.1974 25.3636C34.9749 25.0346 35.8105 24.8652 36.6547 24.8652C37.4989 24.8652 38.3345 25.0346 39.112 25.3636C39.8895 25.6925 40.593 26.1741 41.1809 26.7799C43.7346 29.3275 43.7346 33.1549 41.0572 35.956L32.2584 44.7548L23.4595 35.956C20.5286 33.2786 20.5286 29.3275 23.0761 26.7799Z" fill="white"/>
</svg>
