<svg width="28" height="28" viewBox="0 0 28 28" fill="none" xmlns="http://www.w3.org/2000/svg">
<path d="M28 0H0V28H28V0Z" fill="#616E88"/>
<path d="M6.68183 9.36436C6.7052 9.13345 6.61714 8.90523 6.44472 8.74982L4.6884 6.63404V6.31799H10.1418L14.357 15.5624L18.0628 6.31799H23.2616V6.63404L21.7599 8.07382C21.6304 8.1725 21.5662 8.33469 21.593 8.49522V19.0741C21.5662 19.2346 21.6304 19.3968 21.7599 19.4955L23.2264 20.9353V21.2513H15.8499V20.9353L17.3691 19.4604C17.5184 19.3111 17.5184 19.2672 17.5184 19.039V10.4881L13.2944 21.2162H12.7236L7.80588 10.4881V17.6782C7.76487 17.9805 7.86527 18.2849 8.07811 18.5035L10.054 20.9002V21.2162H4.45129V20.9002L6.42716 18.5035C6.63845 18.2845 6.73299 17.9781 6.68183 17.6782V9.36436Z" fill="#2E3440"/>
</svg>
