<svg width="48" height="50" viewBox="0 0 48 50" fill="none" xmlns="http://www.w3.org/2000/svg">
<path d="M32.9444 37.203C39.4276 33.4412 44.0651 28.7209 46.2032 23.6932C47.0827 20.0758 47.5859 16.1811 47.5859 12.0693C47.5859 11.4946 47.5595 10.9451 47.5068 10.4206C47.1292 16.501 39.2707 24.1462 28.874 29.1438C16.3329 35.1678 6.92363 36.7889 2.72653 32.1928C4.18454 35.0724 6.13691 37.9796 8.35779 40.5857C13.5198 45.1743 22.0319 43.5306 32.9444 37.203Z" fill="#990AE3"/>
<path d="M27.4097 24.8325C39.2406 19.1272 47.4792 11.0078 46.0426 5.62624C43.6837 1.55336 38.9106 0 33.7926 0C18.6203 0 0 10.0015 0 22.7609C0 24.3996 0.361365 26.2365 1.01006 28.155C4.47063 32.7486 15.0506 30.795 27.4097 24.8325Z" fill="#990AE3"/>
<path d="M26.4122 42.917C18.0933 46.291 13.3304 45.2145 10.6979 43.1128L10.6603 43.0801C14.7344 47.143 19.3769 50 23.4473 50C30.578 50 40.3398 41.3536 44.9585 27.9405C42.3562 32.7813 36.7701 38.73 26.4122 42.917Z" fill="#990AE3"/>
<path d="M26.4122 42.9171C36.7701 38.73 42.3562 32.7813 44.9597 27.938C45.4303 26.5716 45.8481 25.1538 46.2044 23.692C44.0651 28.7197 39.4276 33.4401 32.9456 37.2018C22.0332 43.5294 13.5211 45.1744 8.35782 40.5845C9.09937 41.4516 9.86978 42.291 10.6615 43.0777L10.6992 43.1103C13.3303 45.2145 18.0933 46.2911 26.4122 42.9171Z" fill="white"/>
<path d="M28.8727 29.1438C39.2695 24.1474 47.1279 16.5011 47.5056 10.4206C47.3199 8.53473 46.8079 6.94749 46.0413 5.6275C47.4792 11.0091 39.2406 19.1285 27.4084 24.8338C15.048 30.7963 4.46935 32.7499 1.00879 28.155C1.45297 29.4725 2.03265 30.8314 2.72401 32.1928C6.92362 36.7889 16.3329 35.1678 28.8727 29.1438Z" fill="white"/>
<g opacity="0.2">
<g opacity="0.2">
<g opacity="0.2">
<path opacity="0.2" d="M32.9444 37.203C39.4276 33.4412 44.0651 28.7209 46.2032 23.6932C47.0827 20.0758 47.5859 16.1811 47.5859 12.0693C47.5859 11.4946 47.5595 10.9451 47.5068 10.4206C47.1292 16.501 39.2707 24.1462 28.874 29.1438C16.3329 35.1678 6.92363 36.7889 2.72653 32.1928C4.18454 35.0724 6.13691 37.9796 8.35779 40.5857C13.5198 45.1743 22.0319 43.5306 32.9444 37.203Z" fill="#642D96"/>
</g>
<g opacity="0.2">
<path opacity="0.2" d="M27.4097 24.8325C39.2406 19.1272 47.4792 11.0078 46.0426 5.62624C43.6837 1.55336 38.9106 0 33.7926 0C18.6203 0 0 10.0015 0 22.7609C0 24.3996 0.361365 26.2365 1.01006 28.155C4.47063 32.7486 15.0506 30.795 27.4097 24.8325Z" fill="#642D96"/>
</g>
<g opacity="0.2">
<path opacity="0.2" d="M26.4122 42.917C18.0933 46.291 13.3304 45.2145 10.6979 43.1128L10.6603 43.0801C14.7344 47.143 19.3769 50 23.4473 50C30.578 50 40.3398 41.3536 44.9585 27.9405C42.3562 32.7813 36.7701 38.73 26.4122 42.917Z" fill="#642D96"/>
</g>
<path opacity="0.2" d="M26.4122 42.9171C36.7701 38.73 42.3562 32.7813 44.9597 27.938C45.4303 26.5716 45.8481 25.1538 46.2044 23.692C44.0651 28.7197 39.4276 33.4401 32.9456 37.2018C22.0332 43.5294 13.5211 45.1744 8.35782 40.5845C9.09937 41.4516 9.86978 42.291 10.6615 43.0777L10.6992 43.1103C13.3303 45.2145 18.0933 46.2911 26.4122 42.9171Z" fill="#642D96"/>
<path opacity="0.2" d="M28.8727 29.1438C39.2695 24.1474 47.1279 16.5011 47.5056 10.4206C47.3199 8.53473 46.8079 6.94749 46.0413 5.6275C47.4792 11.0091 39.2406 19.1285 27.4084 24.8338C15.048 30.7963 4.46935 32.7499 1.00879 28.155C1.45297 29.4725 2.03265 30.8314 2.72401 32.1928C6.92362 36.7889 16.3329 35.1678 28.8727 29.1438Z" fill="#642D96"/>
</g>
</g>
</svg>
