<svg width="48" height="54" viewBox="0 0 48 54" fill="none" xmlns="http://www.w3.org/2000/svg">
<path d="M42.8172 15.2719H34.7236L34.8471 15.8816L35.1059 17.3223L35.6277 20.1656L41.6294 52.7413C43.728 52.9033 45.8539 53.1169 48 53.4207V48.4832C47.1496 48.5709 46.3084 48.6383 45.4645 48.7214L42.8172 15.2719Z" fill="#294090"/>
<path d="M11.4224 16.1772L11.5763 15.2718H4.87799L2.51601 48.7013C1.66399 48.6203 0.824194 48.5506 0 48.4831C0 50.1363 0 51.7717 0 53.4207C1.56331 53.1305 3.42812 52.9032 4.9909 52.7459L10.8122 19.5931L11.4224 16.1772Z" fill="#294090"/>
<path d="M11.4225 44.4499L11.2656 45.1987H34.9483L34.8471 44.6905L34.6153 43.6397H11.5861L11.4225 44.4499Z" fill="#294090"/>
<path d="M35.6277 1.90646L35.1059 1.9435L34.8471 1.96938C31.0498 2.26396 27.2604 2.37758 23.5837 2.37758C19.602 2.37758 15.4165 2.15159 11.4224 1.78611L10.8122 1.73648C7.05085 1.371 3.46924 0.880737 0.418304 0.339604L0.553896 6.66073L5.49109 6.54836L5.20821 10.5164C7.12016 10.6176 8.97876 10.7684 10.8122 10.9134L11.4224 10.9449C15.4766 11.2845 19.4356 11.5984 23.5939 11.5984C27.2604 11.5984 31.0746 11.3533 34.8471 11.0699L35.1059 11.0575L35.6277 11.0203C37.9425 10.8437 40.2326 10.6546 42.4391 10.5231L42.0568 5.72381L48 6.25253C48 4.64863 48 1.60372 48 2.72583e-06C43.9421 0.950218 39.7779 1.5408 35.6277 1.90646Z" fill="#294090"/>
<path d="M11.7716 42.7514H34.4196L34.08 41.2104H12.0988L11.7716 42.7514Z" fill="#294090"/>
<path d="M35.6277 48.5324H10.5671L10.0575 52.3747C10.3156 52.3635 10.5671 52.35 10.8122 52.3432L11.4225 52.3184C15.3726 52.1857 19.3323 52.2489 23.4546 52.2489C27.2787 52.2489 30.9486 52.2489 34.8471 52.3815L35.1059 52.3884L35.6277 52.4061L36.5207 52.4331L35.6793 48.5324H35.6277Z" fill="#294090"/>
<path d="M11.4224 46.0849H11.0702L10.8122 47.3133L10.7526 47.6329H10.8122H11.4224H34.8471H35.1059H35.477L35.1509 46.0849H35.1059H34.8471H11.4224Z" fill="#294090"/>
<path d="M13.3064 35.4492H32.8361L32.4897 33.9018H13.6336L13.3064 35.4492Z" fill="#294090"/>
<path d="M16.3697 20.8574L13.822 32.9974H32.3006L29.6596 20.8574H16.3697Z" fill="#294090"/>
<path d="M12.2874 40.3172H33.8911L33.5514 38.7764H12.6146L12.2874 40.3172Z" fill="#294090"/>
<path d="M12.7906 37.8832H33.3646L33.025 36.3311H13.1175L12.7906 37.8832Z" fill="#294090"/>
</svg>
