<svg width="28" height="24" viewBox="0 0 28 24" fill="none" xmlns="http://www.w3.org/2000/svg">
<path d="M27.9452 2.85805C26.9127 3.33665 25.8103 3.66269 24.6495 3.81155C25.8324 3.05982 26.7424 1.87502 27.1729 0.461373C26.0634 1.1442 24.8338 1.64126 23.5249 1.91808C22.4796 0.738197 20.9898 0 19.3355 0C16.1658 0 13.5958 2.71041 13.5958 6.04952C13.5958 6.52935 13.6483 6.99072 13.7439 7.43241C8.97246 7.19496 4.74347 4.77859 1.91325 1.12575C1.41511 2.01405 1.13629 3.04629 1.13629 4.17081C1.13629 6.27467 2.15124 8.12385 3.68885 9.21023C2.74739 9.17824 1.86192 8.90511 1.08962 8.45235V8.5274C1.08962 11.4617 3.06471 13.9089 5.6931 14.4662C5.21128 14.6028 4.70264 14.6766 4.18116 14.6766C3.81484 14.6766 3.46369 14.6397 3.11254 14.5708C3.84867 16.9736 5.96492 18.7256 8.48365 18.7748C6.52373 20.3976 4.04 21.3646 1.36494 21.3646C0.909962 21.3646 0.456148 21.3363 0 21.2822C2.55373 22.9973 5.56244 24 8.81613 24C19.3787 24 25.1476 14.7775 25.1476 6.79264C25.1476 6.5355 25.1476 6.2759 25.1301 6.01753C26.2512 5.16984 27.23 4.09822 28 2.88266L27.9452 2.85805Z" fill="#616E88"/>
</svg>
